<svg xmlns="http://www.w3.org/2000/svg" version="1.1" xmlns:xlink="http://www.w3.org/1999/xlink" xmlns:svgjs="http://svgjs.dev/svgjs" width="1440" height="560" preserveAspectRatio="none" viewBox="0 0 1440 560"><g mask="url(&quot;#SvgjsMask1021&quot;)" fill="none"><rect width="1440" height="560" x="0" y="0" fill="rgba(25, 25, 25, 1)"></rect><path d="M0 75C49.16 30.2 66.81 28.42 140 12.41C206.81 -2.21 211.86 19.03 280 13.73C291.58 12.83 287.9 1.13 299.44 0C357.9 -5.73 359.72 0 420 0C459.46 0 464.64 -13.48 498.91 0C534.64 14.06 531.01 55.08 560 55.08C585.91 55.08 577.48 12.28 608.7 0C647.48 -15.26 654.35 0 700 0C770 0 770 0 840 0C908.13 0 943.78 -34.52 976.27 0C1009.66 35.48 970.01 72.32 971.76 140C971.88 144.51 977 140.83 980 144.38C1036.06 210.83 1089.87 212.6 1089.87 280C1089.87 346.17 1037.01 348.35 980 411.52C973.84 418.35 968.9 412.59 963.53 420C915.06 486.83 924.07 501.34 872.31 560C862.3 571.34 856.15 560 840 560C770 560 770 560 700 560C657.5 560 656.38 566.15 615 560C586.38 555.75 587.81 539.19 560 539.19C526.83 539.19 527.33 554.9 493.04 560C457.33 565.31 456.52 560 420 560C350 560 350 560 280 560C210 560 210 560 140 560C70 560 35.49 594.51 0 560C-34.51 526.45 -34.49 456 0 423.89C35.51 390.83 70.08 425.49 140 429.66C210.08 433.84 212.39 424.72 280 440.59C352.39 457.58 365.9 502.11 420 495.38C448.63 491.82 445.45 457.47 445.45 420C445.45 385.99 447.05 355.31 420 352.41C364.33 346.45 352.02 387.18 280 402.28C212.02 416.53 210.03 407.25 140 411.11C70.03 414.96 35.31 450.77 0 417.7C-34.69 385.21 0 348.85 0 280C0 210 0 210 0 140C0 107.5 -20.84 93.99 0 75" stroke="rgba(48, 189, 230, 1)" stroke-width="2"></path><path d="M1277.75 140C1290.22 72.16 1256.2 39.36 1290.57 0C1317.32 -30.64 1345.28 0 1400 0C1470 0 1496.85 -26.85 1540 0C1566.85 16.71 1548.87 45.9 1540 87.11C1533.8 115.9 1516.16 110.84 1509.87 140C1495.35 207.29 1524.25 217.98 1498.38 280C1469.32 349.68 1452.84 346.05 1400 403.39C1388.34 416.05 1369.38 404.96 1369.38 420C1369.38 474.52 1359.66 517.04 1400 542.5C1444.97 570.89 1483.07 520.57 1540 527.69C1553.07 529.32 1553.13 556.97 1540 560C1483.13 573.13 1470 560 1400 560C1330 560 1330 560 1260 560C1190 560 1190 560 1120 560C1070 560 1020 585.14 1020 560C1020 517.83 1068.41 490.82 1120 425.38C1123.59 420.82 1128.77 425.47 1130.37 420C1150.02 352.78 1130.77 342.1 1162.5 280C1195.59 215.23 1212.44 224.03 1260 166.25C1270.06 154.03 1274.94 155.29 1277.75 140" stroke="rgba(241, 83, 173, 1)" stroke-width="2"></path><path d="M700 168.97C667.31 168.97 617.44 233.61 617.44 280C617.44 311.48 662.86 324.72 700 324.72C723.3 324.72 738.33 306.01 738.33 280C738.33 228.13 727.75 168.97 700 168.97" stroke="rgba(241, 83, 173, 1)" stroke-width="2"></path><path d="M28.47 140C81.17 95.19 77.82 70.96 140 56.71C203.58 42.14 215.94 96.5 280 82.35C344.27 68.15 336.5 35.39 396.67 0C406.5 -5.78 408.34 0 420 0C427.63 0 429.44 -4.69 435.27 0C499.44 51.54 494.31 61.06 560 112.46C583.77 131.06 614.19 119.24 614.19 140C614.19 173.01 599.18 198.17 560 220C502.09 252.26 484.44 224.88 420 248.18C401.48 254.88 410.1 267.43 394.07 280C340.1 322.32 343.1 339.21 280 357.97C216.06 376.99 209.98 354.97 140 355.56C69.98 356.15 44.49 384.34 0 360.33C-25.51 346.56 0 320.16 0 280C0 227.87 -9.9 224.41 0 175.74C4.34 154.41 11.17 154.71 28.47 140" stroke="rgba(241, 83, 173, 1)" stroke-width="2"></path><path d="M700 71.79C671.32 43.69 659.42 24.06 659.42 0C659.42 -11.84 679.71 0 700 0C770 0 770 0 840 0C884.8 0 924.27 -25.89 929.6 0C938.68 44.11 855.01 85.46 868.82 140C880.21 184.99 931.64 160.75 980 199.06C1020.01 230.75 1045.57 239.78 1045.57 280C1045.57 319.49 1019.98 328.22 980 358.48C927.49 398.22 915.89 384.18 860.59 420C845.89 429.52 854.71 439.55 840 449.17C774.41 492.05 773.55 513.78 700 525C633.55 535.14 621.75 522.9 560 491.89C517.2 470.4 490.91 459.72 490.91 420C490.91 367.18 511.8 317.57 560 306.81C616.34 294.23 638.65 380.81 700 373.33C748.65 367.4 756.24 334.18 780 280C807.4 217.52 823.73 195.75 802.31 140C783.73 91.64 742.76 113.69 700 71.79" stroke="rgba(48, 189, 230, 1)" stroke-width="2"></path><path d="M1327.04 140C1346.13 75.52 1306.38 46.85 1330.8 0C1342.86 -23.15 1365.4 0 1400 0C1470 0 1474.37 -4.37 1540 0C1544.37 0.29 1542.17 5.24 1540 9.33C1504.96 75.24 1488.54 70.09 1465.57 140C1444.08 205.43 1471.8 215.51 1451.08 280C1439.02 317.54 1432.46 320.29 1400 344.07C1336.92 390.29 1305.91 436.81 1260 420C1218.41 404.77 1225 345.87 1225 280C1225 255.45 1244.18 260.87 1260 239.17C1295.2 190.87 1310.73 195.11 1327.04 140" stroke="rgba(48, 189, 230, 1)" stroke-width="2"></path><path d="M0 521.11C55.07 493.58 69.16 497.35 140 490C209.16 482.82 215.58 473.3 280 492.06C335.79 508.3 380.43 541.42 380.43 560C380.43 575.39 330.22 560 280 560C210 560 210 560 140 560C70 560 54.78 575.22 0 560C-15.22 555.77 -14.93 528.58 0 521.11" stroke="rgba(48, 189, 230, 1)" stroke-width="2"></path><path d="M1070 560C1070 538.92 1091.12 492.69 1120 492.69C1155.89 492.69 1199.55 540.91 1199.55 560C1199.55 574.57 1159.78 560 1120 560C1095 560 1070 572.57 1070 560" stroke="rgba(241, 83, 173, 1)" stroke-width="2"></path><path d="M87.8 140C109.93 116.41 110.72 101.01 140 101.01C196.05 101.01 202.93 114.88 258.46 140C272.93 146.55 272.73 149.97 280 164.35C308.13 219.97 329.26 229.37 329.26 280C329.26 304.03 308.18 310.69 280 313.67C213.55 320.69 210.16 302.69 140 300C70.16 297.33 60.14 311.54 0 302.95C-9.86 301.54 0 291.48 0 280C0 265.11 -7.66 262.43 0 250.21C36.24 192.43 39.93 191.01 87.8 140" stroke="rgba(48, 189, 230, 1)" stroke-width="2"></path><path d="M323.08 140C323.08 121.08 374.15 95 420 95C451.25 95 477.27 120.41 477.27 140C477.27 157.23 449.9 168.64 420 168.64C372.81 168.64 323.08 157.9 323.08 140" stroke="rgba(241, 83, 173, 1)" stroke-width="2"></path><path d="M840 78.54C791.93 78.54 725 21.51 725 0C725 -17.76 782.5 0 840 0C861.46 0 882.93 -12.73 882.93 0C882.93 26.54 870.9 78.54 840 78.54" stroke="rgba(48, 189, 230, 1)" stroke-width="2"></path><path d="M1376.34 140C1374.48 69.98 1361.23 58.01 1371.03 0C1373.06 -11.99 1385.51 0 1400 0C1431.5 0 1459.8 -21.09 1463 0C1470.43 48.91 1436.33 68.78 1421.27 140C1406.72 208.78 1413.98 210.61 1403.78 280C1403.34 282.99 1402.73 284.75 1400 284.75C1390.07 284.75 1380.07 289.85 1378.46 280C1368.24 217.47 1378.2 209.98 1376.34 140" stroke="rgba(241, 83, 173, 1)" stroke-width="2"></path><path d="M821.67 280C821.67 253.55 817.62 230.61 840 226.9C896.79 217.49 914.81 232.29 980 253.75C995.45 258.84 1001.27 266.96 1001.27 280C1001.27 292.81 995.26 300.75 980 305.45C914.63 325.59 897.67 338.95 840 329.68C818.51 326.23 821.67 304.94 821.67 280" stroke="rgba(241, 83, 173, 1)" stroke-width="2"></path><path d="M536.36 420C536.36 401.93 540.75 381.28 560 381.28C617.57 381.28 690 403.98 690 420C690 435.63 621.07 444.59 560 444.59C544.25 444.59 536.36 433.59 536.36 420" stroke="rgba(241, 83, 173, 1)" stroke-width="2"></path><path d="M110.53 560C110.53 557.52 124.65 551.83 140 550.34C209.38 543.6 212.07 539.54 280 543.53C294.25 544.37 304.35 555.5 304.35 560C304.35 563.73 292.17 560 280 560C210 560 210 560 140 560C125.26 560 110.53 562.35 110.53 560" stroke="rgba(48, 189, 230, 1)" stroke-width="2"></path></g><defs><mask id="SvgjsMask1021"><rect width="1440" height="560" fill="#ffffff"></rect></mask></defs></svg>